<?xml version="1.0" encoding="UTF-8"?><svg id="Layer_2" xmlns="http://www.w3.org/2000/svg" viewBox="0 0 33.02 6.59"><defs><style>.cls-1{fill:#6eba5e;}.cls-2{fill:#292892;}</style></defs><g id="Layer_1-2"><path class="cls-2" d="m16.18,5.49c0,.08,0,.15,0,.21,0,.06-.01.11-.02.15,0,.04-.02.08-.04.11s-.04.06-.08.1c-.04.04-.11.09-.21.14-.1.06-.23.12-.38.17-.15.05-.32.1-.51.13-.19.04-.4.05-.62.05-.43,0-.82-.07-1.17-.2s-.64-.33-.89-.6c-.24-.27-.43-.6-.56-.99s-.2-.86-.2-1.39.07-1.01.21-1.43.34-.77.6-1.05.57-.5.93-.64c.36-.15.76-.22,1.19-.22.18,0,.34.01.51.04s.31.07.45.12c.14.05.26.1.37.16s.19.11.23.16.07.08.09.11.03.07.04.11.02.1.02.16c0,.06,0,.14,0,.23,0,.1,0,.18,0,.25s-.02.12-.03.17-.04.07-.06.09-.05.03-.08.03c-.05,0-.11-.03-.19-.08-.08-.06-.17-.12-.29-.19-.12-.07-.26-.13-.43-.19-.16-.06-.36-.09-.59-.09-.25,0-.47.05-.67.15-.2.1-.36.25-.5.44-.14.19-.24.42-.32.69s-.11.57-.11.91c0,.37.04.69.11.96.08.27.19.5.33.67.14.18.31.31.51.39.2.09.43.13.68.13.23,0,.42-.03.59-.08.17-.05.31-.11.43-.18.12-.07.22-.12.29-.18.08-.05.14-.08.18-.08.03,0,.06,0,.08.02s.04.04.05.08.02.09.03.16c0,.07,0,.16,0,.28Z"/><path class="cls-2" d="m22.28,5.96c.04.12.06.21.07.28s0,.12-.04.15c-.04.04-.1.06-.19.06-.09,0-.22.01-.38.01s-.29,0-.39,0c-.09,0-.16-.01-.21-.03-.05-.01-.08-.03-.1-.06s-.04-.06-.05-.1l-.42-1.27h-2.37l-.4,1.24s-.03.08-.05.12c-.02.03-.05.05-.1.07-.05.02-.11.03-.2.04-.09,0-.2,0-.34,0-.15,0-.27,0-.35-.01s-.14-.03-.18-.07c-.03-.04-.04-.09-.03-.16s.03-.16.07-.27l1.95-5.61c.02-.06.04-.1.07-.13.03-.03.07-.06.12-.08.06-.02.14-.03.24-.03.1,0,.23,0,.4,0,.19,0,.34,0,.46,0,.11,0,.2.02.27.03.06.02.11.04.14.08.03.04.05.08.07.15l1.95,5.6Zm-2.9-4.63h0l-.89,2.69h1.79l-.89-2.69Z"/><path class="cls-2" d="m26.91,4.55c0,.33-.06.62-.19.87s-.29.46-.5.63c-.21.17-.46.29-.74.38s-.59.13-.91.13c-.22,0-.42-.02-.61-.05-.19-.04-.35-.08-.5-.13-.14-.05-.26-.1-.36-.16-.1-.06-.17-.1-.21-.15s-.07-.1-.09-.18c-.02-.08-.03-.2-.03-.34,0-.1,0-.19,0-.25s.02-.12.03-.17c.01-.04.03-.07.06-.09.02-.02.05-.03.08-.03.05,0,.11.03.19.08.08.05.19.11.32.18s.29.12.47.18c.18.05.39.08.63.08.16,0,.3-.02.42-.06.12-.04.23-.09.31-.16.09-.07.15-.15.2-.25s.07-.21.07-.34c0-.14-.04-.27-.12-.37-.08-.1-.18-.19-.31-.27-.12-.08-.27-.15-.43-.22-.16-.07-.32-.14-.49-.22s-.33-.17-.49-.27c-.16-.1-.3-.22-.43-.36-.13-.14-.23-.3-.31-.49s-.12-.42-.12-.68c0-.3.06-.57.17-.8.11-.23.26-.42.45-.57.19-.15.42-.26.67-.34.26-.08.53-.11.82-.11.15,0,.3.01.45.03s.29.05.42.09.25.08.35.13.17.09.2.12.05.06.07.08c.01.02.02.05.03.09,0,.04.01.08.02.14,0,.06,0,.13,0,.21,0,.09,0,.17,0,.24,0,.07-.01.12-.03.16-.01.04-.03.07-.05.09-.02.02-.05.03-.08.03s-.09-.02-.17-.07-.17-.1-.29-.15c-.11-.05-.25-.1-.4-.15-.15-.04-.31-.07-.49-.07-.14,0-.26.02-.37.05-.1.04-.19.08-.26.14-.07.06-.12.13-.16.22-.03.08-.05.17-.05.27,0,.14.04.26.12.36.08.1.18.19.31.27.13.08.27.15.44.22.16.07.33.14.5.22s.33.17.5.27c.16.1.31.22.43.36.13.14.23.3.31.49.08.19.12.41.12.66Z"/><path class="cls-2" d="m32.94,5.96c.04.12.06.21.07.28s0,.12-.04.15c-.04.04-.1.06-.19.06-.09,0-.22.01-.38.01s-.29,0-.39,0c-.09,0-.16-.01-.21-.03-.05-.01-.08-.03-.1-.06s-.04-.06-.05-.1l-.42-1.27h-2.37l-.4,1.24s-.03.08-.05.12c-.02.03-.05.05-.1.07-.05.02-.11.03-.2.04-.09,0-.2,0-.34,0-.15,0-.27,0-.35-.01s-.14-.03-.18-.07c-.03-.04-.04-.09-.03-.16s.03-.16.07-.27l1.95-5.61c.02-.06.04-.1.07-.13.03-.03.07-.06.12-.08.06-.02.14-.03.24-.03.1,0,.23,0,.4,0,.19,0,.34,0,.46,0,.11,0,.2.02.27.03.06.02.11.04.14.08.03.04.05.08.07.15l1.95,5.6Zm-2.9-4.63h0l-.89,2.69h1.79l-.89-2.69Z"/><path class="cls-1" d="m9.67.1c-.1-.12-.29-.13-.4-.02-.45.4-.87.81-1.28,1.24-.41.43-.81.87-1.19,1.32-.57.68-1.12,1.37-1.63,2.11l-.7-.78c.16-.27.32-.52.46-.74.32-.48.66-.95,1-1.41.35-.46.71-.91,1.09-1.33h.01c.09-.11.1-.28,0-.39-.1-.12-.29-.13-.4-.02-.45.4-.87.81-1.28,1.24-.41.43-.81.87-1.19,1.32-.14.16-.27.34-.41.5l-.61-.68c-.09-.09-.24-.12-.36-.05-.13.08-.18.26-.1.39,0,0,.25.42.56.96-.25.32-.49.65-.72.98L.5,2.47c-.09-.09-.25-.12-.36-.05-.13.08-.18.26-.1.39,0,0,1.94,3.34,2.01,3.47.07.12.24.32.56.32s.49-.18.6-.39c.05-.1.35-.65.71-1.27.4.69.75,1.29.78,1.34.07.12.24.32.56.32s.49-.18.6-.39c.1-.21,1.09-2.01,1.72-2.98.32-.48.66-.95,1-1.41.35-.46.71-.91,1.09-1.33h.01c.09-.11.09-.28,0-.39h0Z"/></g></svg>