<?xml version="1.0" encoding="UTF-8"?><svg id="Layer_2" xmlns="http://www.w3.org/2000/svg" viewBox="0 0 22 22"><defs><style>.cls-1{fill:#0b0b0c;}</style></defs><g id="Layer_1-2"><path class="cls-1" d="m21.32,0H.68C.31,0,0,.31,0,.68v20.64c0,.38.31.68.68.68h20.64c.38,0,.68-.31.68-.68V.68c0-.38-.31-.68-.68-.68h0Zm.23,21.32c0,.13-.1.23-.23.23H.68c-.13,0-.23-.1-.23-.23V.68c0-.13.1-.23.23-.23h20.64c.13,0,.23.1.23.23v20.64Z"/><path class="cls-1" d="m9.84,5.21h-1.55v-.77h1.55v-.77h-.77v-.77h1.55v-1.54h-.77v.77h-1.55v-.77h-.77v1.54h.77v.77h-.77v3.09h.77v-.77h.77v1.55h.77v-2.32Z"/><path class="cls-1" d="m11.39,7.52v-3.09h.77V1.34h-.77v1.54h-.77v4.63h.77Z"/><path class="cls-1" d="m6.75,1.34H1.34v5.41h5.41V1.34Zm-.77,4.63h-3.86v-3.86h3.86v3.86Z"/><path class="cls-1" d="m13.7,4.43h.77v-2.32h-1.54v.77h.77v1.55Z"/><path class="cls-1" d="m15.25,6.75h5.41V1.34h-5.41v5.41Zm.77-4.64h3.86v3.86h-3.86v-3.86Z"/><path class="cls-1" d="m2.89,2.89h2.32v2.32h-2.32v-2.32Z"/><path class="cls-1" d="m16.79,2.89h2.32v2.32h-2.32v-2.32Z"/><path class="cls-1" d="m12.93,7.52v1.54h2.32v-.77h-1.54v-.77h.77v-2.32h-.77v1.55h-.77v-2.32h-.77v3.09h.77Z"/><path class="cls-1" d="m6.75,10.61h-.77v-.77h.77v-.77h-2.32v-1.54h-.77v.77H1.34v3.09h.77v-1.54h.77v-.77h.77v.77h1.54v.77h-1.54v.77h-1.55v.77h.77v.77h.77v.77h1.54v-.77h1.55v.77h-1.55v.77h2.32v-2.32h-2.32v-.77h2.32v-1.54h-.77v.77Z"/><path class="cls-1" d="m5.98,7.52h.77v.77h-.77v-.77Z"/><path class="cls-1" d="m9.07,9.07v-1.54h-.77v.77h-.77v1.55h.77v-.77h.77Z"/><path class="cls-1" d="m9.84,9.07h1.54v-.77h-.77v-.77h-.77v1.54Z"/><path class="cls-1" d="m16.02,7.52h2.32v.77h-2.32v-.77Z"/><path class="cls-1" d="m19.11,9.84h.77v1.54h.77v-2.32h-.77v-.77h.77v-.77h-1.54v2.32Z"/><path class="cls-1" d="m9.07,9.07h.77v.77h-.77v-.77Z"/><path class="cls-1" d="m12.16,9.07h.77v.77h-.77v-.77Z"/><path class="cls-1" d="m17.57,9.07h.77v.77h-.77v-.77Z"/><path class="cls-1" d="m2.89,9.84h.77v.77h-.77v-.77Z"/><path class="cls-1" d="m8.3,9.84h.77v.77h-.77v-.77Z"/><path class="cls-1" d="m12.16,10.61h-.77v-.77h-1.54v1.54h2.32v-.77Z"/><path class="cls-1" d="m7.52,11.39h.77v.77h-.77v-.77Z"/><path class="cls-1" d="m10.61,12.16h-.77v-.77h-.77v1.55h.77v.77h1.54v-.77h-.77v-.77Z"/><path class="cls-1" d="m12.93,11.39h1.54v.77h-1.54v-.77Z"/><path class="cls-1" d="m1.34,12.16h.77v.77h-.77v-.77Z"/><path class="cls-1" d="m11.39,12.16h1.55v.77h-1.55v-.77Z"/><path class="cls-1" d="m19.88,13.7h-.77v.77h1.54v-2.32h-.77v1.54Z"/><path class="cls-1" d="m2.12,13.7h-.77v.77h1.54v-1.54h-.77v.77Z"/><path class="cls-1" d="m12.93,12.93h.77v.77h-.77v-.77Z"/><path class="cls-1" d="m9.84,14.48v-.77h-.77v2.32h-.77v1.54h.77v-.77h.77v-1.55h.77v1.55h.77v-.77h.77v-2.32h-.77v.77h-1.54Z"/><path class="cls-1" d="m7.52,14.48h.77v.77h-.77v-.77Z"/><path class="cls-1" d="m17.57,14.48v-1.54h1.54v-2.32s-.77,0-.77,0v1.54h-1.54v-.77h.77v-1.54h-.77v-.77h-.77v1.55h-.77v-.77h-1.55v.77h.77v.77h1.54v.77h-.77v.77h.77v.77h-.77v-.77h-.77v.77h-.77v.77h-.77v.77h.77v1.55h-1.55v1.54h.77v1.54h.77v-.77h.77s0-1.54,0-1.54h1.54v.77h.77v-.77h.77v-1.54h.77v-1.55h-.77Zm-.77,2.32h-2.32v-2.32h2.32v2.32Z"/><path class="cls-1" d="m15.25,15.25h.77v.77h-.77v-.77Z"/><path class="cls-1" d="m19.11,16.02h-.77v1.54h.77v-.77h.77v-.77h.77v-.77h-1.54v.77Z"/><path class="cls-1" d="m1.34,20.66h5.41v-5.41H1.34v5.41Zm.77-4.63h3.86v3.86h-3.86v-3.86Z"/><path class="cls-1" d="m2.89,16.79h2.32v2.32h-2.32v-2.32Z"/><path class="cls-1" d="m9.84,16.79h.77v.77h-.77v-.77Z"/><path class="cls-1" d="m7.52,17.57h.77v.77h-.77v-.77Z"/><path class="cls-1" d="m9.07,17.57h.77v.77h-.77v-.77Z"/><path class="cls-1" d="m19.11,17.57h.77v.77h-.77v-.77Z"/><path class="cls-1" d="m8.3,18.34h.77v1.54h-.77v-1.54Z"/><path class="cls-1" d="m12.16,19.11h-.77v-.77h-.77v.77h-.77v.77h.77v.77h2.32v-.77h-.77v-.77Z"/><path class="cls-1" d="m16.02,19.11v-.77h-.77v1.54h-1.54v.77h2.32v-.77h.77v.77h.77v-.77h.77v-1.54h-1.54v.77h-.77Z"/><path class="cls-1" d="m19.88,18.34h.77v.77h-.77v-.77Z"/><path class="cls-1" d="m19.11,19.88h1.54v.77h-1.54v-.77Z"/></g></svg>