<?xml version="1.0" encoding="UTF-8"?><svg id="Layer_2" xmlns="http://www.w3.org/2000/svg" viewBox="0 0 35.08 16.62"><defs><style>.cls-1{fill:#0b0b0c;}</style></defs><g id="Layer_1-2"><path class="cls-1" d="m18.43,10.82c.16.08.33.16.52.14.3-.02.55-.16.79-.32.04-.03.08-.11.07-.15-.01-.04-.09-.07-.14-.08-.07-.02-.15-.02-.23-.03,0-.01,0-.03,0-.04.09-.06.18-.12.27-.18.07-.05.15-.09.1-.19-.05-.1-.13-.13-.24-.08-.29.11-.59.22-.89.33-.06.02-.13.04-.2.05-.29.07-.59.12-.87.2-.12.03-.17.01-.21-.1-.05-.17-.18-.26-.36-.24-.19.02-.39.05-.57.12-.45.18-.89.38-1.34.57-.27.11-.54.22-.81.33-.01-.01-.03-.02-.04-.04.02-.06.03-.13.06-.18.12-.25.19-.51.08-.78-.03-.07,0-.12.07-.15.11-.06.22-.13.33-.2,1.1-.71,2.18-1.43,3.16-2.3.6-.53,1.17-1.09,1.57-1.8.31-.55.5-1.14.42-1.77-.1-.7-.51-1.21-1.09-1.58-.66-.42-1.41-.55-2.16-.63-1.14-.11-2.28-.06-3.41.11-1.12.17-2.23.44-3.3.79-.85.28-1.69.6-2.52.93-1.7.68-3.28,1.56-4.72,2.7-.56.45-1.07.96-1.41,1.6-.14.26-.22.55-.32.83-.03.07-.03.16.06.2.31.14.69-.04.77-.36.09-.41.29-.77.56-1.09.64-.75,1.4-1.36,2.23-1.9,1.69-1.1,3.51-1.94,5.42-2.56,1.51-.49,3.04-.85,4.63-.97.41-.03.82-.04,1.22-.01.42.03.83.1,1.24.16.56.07,1.09.24,1.56.55.41.26.67.63.75,1.12.08.51-.02.98-.24,1.44-.36.75-.91,1.34-1.52,1.88-1.2,1.06-2.55,1.92-3.92,2.74-.08.05-.19.07-.29.08-.18.02-.37,0-.55.03-1,.14-1.98.38-2.94.68-2.32.72-4.56,1.63-6.68,2.83-.94.53-1.86,1.09-2.67,1.81-.28.24-.5.52-.64.87-.09.22-.03.34.21.4.29.08.59.06.88,0,.78-.13,1.52-.4,2.25-.69,1.83-.71,3.57-1.63,5.29-2.56,1.65-.89,3.27-1.84,4.91-2.76.08-.05.18-.08.27-.12,0,.07,0,.12-.03.17-.07.18-.15.36-.21.55-.08.22.03.4.26.46.24.06.48.04.7-.06.28-.12.55-.26.82-.39.44-.19.87-.38,1.31-.57.09-.04.16-.02.2.07.07.13.19.19.33.22.22.04.42-.02.62-.1.2-.08.39-.09.59,0Zm-5.78-.27c-.59.35-1.17.7-1.77,1.03-.89.49-1.79.96-2.68,1.44-1.42.75-2.85,1.48-4.33,2.11-.81.34-1.63.65-2.48.85-.14.03-.28.04-.42.06-.01-.01-.02-.03-.03-.04.05-.07.09-.15.14-.22.33-.4.75-.7,1.17-1,1.31-.93,2.74-1.66,4.2-2.32,1.22-.54,2.45-1.03,3.73-1.41.77-.23,1.56-.4,2.35-.59.06-.01.13-.01.23-.02-.05.06-.07.1-.1.12Z"/><path class="cls-1" d="m34.93,8.39c-.21-.03-.43-.05-.64-.1-.49-.11-.94-.04-1.4.15-.52.21-1.06.39-1.58.59-.1.04-.14,0-.19-.08-.12-.21-.25-.28-.49-.24-.13.02-.27.05-.4.11-.54.25-1.08.5-1.62.75-.04.02-.09.03-.14.05,0-.01-.02-.03-.03-.04.05-.06.1-.12.15-.18.2-.23.41-.44.61-.68.08-.09.14-.2.19-.32.07-.18-.04-.34-.23-.33-.13,0-.27.01-.39.07-.37.17-.75.35-1.11.56-1.13.65-2.2,1.4-3.28,2.14-.96.65-1.9,1.32-2.93,1.86-.28.15-.57.3-.9.34-.26.03-.31-.03-.24-.28,0,0,0-.02,0-.03.11-.47.36-.88.61-1.29.07-.11.17-.22.28-.3,1.66-1.21,3.33-2.42,4.99-3.63,1.47-1.07,2.95-2.13,4.41-3.21,1.13-.83,2.21-1.74,3.16-2.78.25-.28.47-.57.62-.92.13-.3-.01-.64-.4-.61-.15.01-.31.03-.44.08-.44.17-.88.33-1.29.54-1.83.9-3.48,2.06-5.06,3.34-1.77,1.44-3.38,3.04-4.88,4.75-.57.65-1.08,1.36-1.62,2.03-.09.11-.19.22-.31.31-.42.29-.84.57-1.28.83-.35.21-.71.38-1.07.57-.09.05-.16.12-.13.23.03.12.11.2.24.19.12,0,.24-.02.35-.07.38-.19.76-.39,1.14-.58.04-.02.09-.04.16-.08-.01.08-.02.12-.03.16-.04.13-.09.26-.12.39-.1.42.15.8.58.84.29.03.6.02.87-.1.45-.21.91-.42,1.33-.68.88-.56,1.74-1.16,2.61-1.74.99-.66,1.99-1.3,2.98-1.95.05-.04.11-.06.17-.09l.03.03c-.05.07-.09.14-.14.2-.16.19-.32.38-.48.57-.1.12-.13.25-.07.4.07.15.2.17.34.18.22.02.43-.05.62-.15.66-.32,1.32-.64,1.98-.97.11-.05.19-.06.27.05.17.22.4.3.68.21.1-.03.19-.06.29-.09.58-.21,1.15-.43,1.73-.65.24-.09.49-.12.74-.07.23.04.46.04.68-.04.1-.03.19-.09.22-.21-.06-.02-.1-.04-.15-.04Zm-12.27.73c1.15-1.32,2.34-2.6,3.63-3.79,1.41-1.3,2.92-2.48,4.53-3.53.74-.48,1.52-.9,2.32-1.26.26-.12.54-.17.81-.24.14-.03.19.03.11.16-.13.22-.27.45-.44.64-1.01,1.21-2.22,2.19-3.47,3.13-1.36,1.03-2.78,1.98-4.19,2.94-1.24.85-2.45,1.73-3.67,2.59-.05.04-.11.06-.17.1-.01-.02-.02-.03-.03-.05.19-.23.38-.47.57-.7Z"/></g></svg>